<svg id="Layer_1" data-name="Layer 1" xmlns="http://www.w3.org/2000/svg" viewBox="0 0 414 109.33"><defs><style>.cls-1{fill:#fff;}</style></defs><title>dont-walk</title><path class="cls-1" d="M48.07,78.29H62.25c8.3,0,14.11-6.82,15.05-14.92A75.06,75.06,0,0,0,77.3,46C76.35,37.86,70.55,31,62.25,31H48.07a1.35,1.35,0,0,0-1.35,1.35V76.94A1.35,1.35,0,0,0,48.07,78.29Zm8.1-37.13a.64.64,0,0,1,.68-.67h5.4c3.1,0,5.2,2.5,5.54,5.47a75.17,75.17,0,0,1,0,17.42c-.34,3-2.43,5.47-5.54,5.47h-5.4a.64.64,0,0,1-.68-.67Z"/><path class="cls-1" d="M97.82,79c9.32,0,15.12-6.82,16.07-14.92a88.49,88.49,0,0,0,0-18.9c-.95-8.1-6.75-14.92-16.07-14.92S82.7,37.12,81.75,45.22a88.49,88.49,0,0,0,0,18.9C82.7,72.22,88.51,79,97.82,79ZM91.27,45.22c.34-3,2.43-5.4,6.55-5.4s6.21,2.43,6.55,5.4a88.49,88.49,0,0,1,0,18.9c-.34,3-2.43,5.4-6.55,5.4s-6.21-2.43-6.55-5.4A88.49,88.49,0,0,1,91.27,45.22Z"/><path class="cls-1" d="M119.15,78.29h6.75a1.35,1.35,0,0,0,1.35-1.35V53.59c0-.4.47-.54.61-.13L137,77.15a1.75,1.75,0,0,0,1.82,1.15h8a1.35,1.35,0,0,0,1.35-1.35V32.39A1.36,1.36,0,0,0,146.83,31h-6.75a1.35,1.35,0,0,0-1.35,1.35V57.77c0,.41-.47.54-.61.13l-9.25-25.65A1.66,1.66,0,0,0,127.19,31h-8a1.35,1.35,0,0,0-1.35,1.35V76.94A1.35,1.35,0,0,0,119.15,78.29Z"/><path class="cls-1" d="M154.59,52h1.35a2.5,2.5,0,0,0,2.29-1.35l4.32-5.67A8,8,0,0,0,164,40.29v-7.9A1.35,1.35,0,0,0,162.69,31h-8.1a1.35,1.35,0,0,0-1.35,1.35v8.1a1.35,1.35,0,0,0,1.35,1.35h1.62c.41,0,.88.41.61.88l-3.65,6.68A1.66,1.66,0,0,0,154.59,52Z"/><path class="cls-1" d="M170.05,40.49h8.44a.64.64,0,0,1,.67.67V76.94a1.35,1.35,0,0,0,1.35,1.35h6.75a1.35,1.35,0,0,0,1.35-1.35V41.17a.64.64,0,0,1,.68-.67h8.44a1.35,1.35,0,0,0,1.35-1.35V32.39A1.35,1.35,0,0,0,197.73,31H170.05a1.36,1.36,0,0,0-1.35,1.35v6.75A1.35,1.35,0,0,0,170.05,40.49Z"/><path class="cls-1" d="M224.19,77.28a1.24,1.24,0,0,0,1.28,1h9.38a1.24,1.24,0,0,0,1.28-1l3.71-21.94a.4.4,0,1,1,.81,0l3.71,21.94a1.24,1.24,0,0,0,1.28,1H255a1.24,1.24,0,0,0,1.28-1l9.11-44.89c.13-.67-.27-1.35-1.35-1.35h-6.75a1.18,1.18,0,0,0-1.28,1l-5.54,29.77c-.07.34-.2.47-.47.47h-.41c-.27,0-.41-.13-.47-.47l-4.59-29.77a1.24,1.24,0,0,0-1.28-1h-6.08a1.24,1.24,0,0,0-1.28,1l-4.52,29.77c-.07.34-.2.47-.47.47h-.41c-.27,0-.4-.13-.47-.47l-5.54-29.77a1.18,1.18,0,0,0-1.28-1H216.5c-1.08,0-1.48.68-1.35,1.35Z"/><path class="cls-1" d="M265.44,78.29h7.09a1.3,1.3,0,0,0,1.28-1l1.89-7c.13-.61.4-1,1-1H287c.61,0,.88.47,1,1l2.09,7a1.36,1.36,0,0,0,1.28,1h7.09c1.08,0,1.49-.74,1.35-1.35l-12-44.89a1.3,1.3,0,0,0-1.28-1h-9a1.3,1.3,0,0,0-1.28,1L264.09,76.94C264,77.55,264.36,78.29,265.44,78.29Zm12.83-19.17,3.24-16.2c.07-.2.14-.27.34-.27H282c.2,0,.27.07.34.27l3.24,16.2c.13.54-.13.74-.54.74h-6.21C278.4,59.87,278.13,59.66,278.27,59.12Z"/><path class="cls-1" d="M305.81,78.29h23a1.35,1.35,0,0,0,1.35-1.35V70.19a1.35,1.35,0,0,0-1.35-1.35H314.58a.64.64,0,0,1-.68-.67V32.39A1.35,1.35,0,0,0,312.56,31h-6.75a1.35,1.35,0,0,0-1.35,1.35V76.94A1.35,1.35,0,0,0,305.81,78.29Z"/><path class="cls-1" d="M336.52,78.29h6.68a1.35,1.35,0,0,0,1.35-1.35V59.26a.37.37,0,0,1,.67-.2l11.54,18.43a1.57,1.57,0,0,0,1.55.81h7.29A1.68,1.68,0,0,0,367,75.73L353.2,54.33a1.66,1.66,0,0,1,0-2.23l12.62-18.63A1.51,1.51,0,0,0,364.67,31h-6.82a1.53,1.53,0,0,0-1.49.68l-11.14,16.4a.37.37,0,0,1-.67-.2V32.39A1.35,1.35,0,0,0,343.21,31h-6.68a1.35,1.35,0,0,0-1.35,1.35V76.94A1.35,1.35,0,0,0,336.52,78.29Z"/><path class="cls-1" d="M410,0H4A4,4,0,0,0,0,4V105.33a4,4,0,0,0,4,4H410a4,4,0,0,0,4-4V4A4,4,0,0,0,410,0Zm-4,101.33H8V8H406Z"/></svg>
